<svg xmlns="http://www.w3.org/2000/svg" width="779.003" height="574.575" viewBox="0 0 779.003 574.575"><defs><style>.a,.ae,.af,.ai,.ao,.ar,.c,.e,.h,.o,.s,.x{fill:none;}.a{stroke:#e7f3ff;}.a,.aa,.ab,.ad,.af,.ah,.ai,.ak,.am,.ao,.aq,.ar,.as,.b,.c,.e,.h,.j,.k,.m,.n,.o,.q,.s,.u,.v,.w,.x{fill-rule:evenodd;}.b{fill:#f6faff;}.ao,.c{stroke:#0d1e54;}.ai,.c{stroke-linecap:round;}.d,.n{fill:#69e4f9;}.ar,.e,.h{stroke:#fff;}.e{stroke-width:2px;opacity:0.7;}.f{fill:#f582ea;}.as,.g,.j{fill:#fff;}.aq,.i{fill:#00c1b9;}.j{opacity:0.2;}.k{fill:#1f0f68;}.l,.w{fill:#ff9267;}.m{fill:#e67a50;}.o{stroke:#ff9095;}.ae,.af,.ai,.o,.s{stroke-width:0.5px;}.p{fill:#ff9095;}.q{fill:#0f0000;}.r{fill:#0d1e54;}.s{stroke:#324583;}.am,.t{fill:#b4b8cc;}.an,.u{fill:#727a9c;}.al,.v{fill:#dde3fb;}.x{stroke:#00628a;}.y{fill:#a9e5f1;}.z{fill:#00628a;}.aa,.ap{fill:#0094cf;}.ab{fill:#7c2412;}.ac{fill:#ffd1be;}.ad{fill:#f8c5b1;}.ae,.af{stroke:#4c1515;}.ag{fill:#7657e5;}.ah{fill:#0065da;}.ai{stroke:#f8c5b1;}.aj{fill:#0a1741;}.ak{fill:#9b9b9b;}.ar{opacity:0.3;}</style></defs><g transform="translate(60.284 92.669)"><g transform="translate(43.616 12.403)"><path class="a" d="M20.955,0Q-39.478,159.4,74.373,225.112c113.851,65.71,159.2-45.478,215.96,101.029s290.82,159.966,334.665-12Q668.844,142.172,549.837,0Z" transform="translate(636.803 439.569) rotate(180)"/><path class="b" d="M20.955,0Q-39.478,159.4,74.373,225.112c113.851,65.71,159.2-45.478,215.96,101.029s290.82,159.966,334.665-12Q668.844,142.172,549.837,0Z" transform="translate(648.162 457.742) rotate(180)"/><path class="c" d="M61.647,402.5h556.56" transform="translate(8.374 54.674)"/></g><g transform="translate(-58.927 -91.31)"><rect class="d" width="124.942" height="124.942" rx="7" transform="translate(66.931 109.393)"/><path class="e" d="M0,61.417Q28.682,208.77,57.188,199.41c28.506-9.36-74.86-166.2-38.95-168.9s50.218,206.1,89.869,198.982S11.18,8.744,49.642,11.639,114.179,199.41,143.905,199.41,55.728,14.326,96.68.947s25.769,118.748,90.59,164.445q64.821,45.7,55.7-40.044" transform="matrix(0.819, -0.574, 0.574, 0.819, 0, 140.006)"/></g><g transform="translate(61.389 68.059)"><rect class="f" width="162.425" height="222.624" rx="4"/><ellipse class="g" cx="38.938" cy="38.573" rx="38.938" ry="38.573" transform="translate(42.275 22.042)"/><path class="h" d="M23.507,107.7H134.225M23.507,129.745H134.225M23.507,151.787H134.225M23.507,173.829H134.225" transform="translate(3.193 14.63)"/></g><g transform="translate(21.748 271.374)"><circle class="i" cx="27.317" cy="27.317" r="27.317" transform="translate(5.784 0)"/><path class="j" d="M6.365,2.389q-3.076,19.458,18.2,22.159c21.274,2.7,31.579.486,30.955,30.018S-4.9,61.11-4.9,27.249Q-4.9-6.612,6.365,2.389Z" transform="translate(4.9 0.068)"/></g><g transform="translate(173.227 124.851)"><g transform="translate(73.575 63.596) rotate(180)"><path class="k" d="M4.86,12.379C2.228,14.724-1.783,22.24.872,27.738s12.313.509,19.179,4.036,10.822-1.721,10.822-5.567q8.326-2.475,4.679-13.083c-.688-2-2.8-4-4.679-7.075S28.457-.784,25.445.143C22.545,1.037,7.491,10.035,4.86,12.379Z" transform="translate(0 30.656)"/><g transform="translate(4.86)"><path class="l" d="M.189,49.966q-1.584-26.71,10.1-26.71.724-3.5-1.712-10.5C6.062,5.515,8.909-.786,14.737.08S27.5,11.029,26.117,15.522q-.612,1.987-2.64,14.19A41.97,41.97,0,0,0,23,34.732c0,2.835.192,3.672.473,4.129,2.469,4.006.116,6.043-1.513,5.341s-1.83-3.241-1.955-3.7-.528-1.322-.869.626q-.341,1.947-.652,3.275a3.636,3.636,0,0,0-1.861,1.343A21.921,21.921,0,0,0,15.5,49.265c-.489,1.438.463-.531-9.112-.787A23.222,23.222,0,0,0,.189,49.966Z"/><path class="m" d="M3.744,7.708a9.192,9.192,0,0,1,6.7,4.343Q10.228,1.612,3.344.194T3.744,7.708Z" transform="translate(6.546 15.547)"/></g></g><g transform="translate(0 45.481)"><path class="d" d="M40.328.175a14.084,14.084,0,0,0,.834,8.052h0A6.469,6.469,0,0,0,52.2,9.787q.368-.462.744-1Q56.074,4.352,55.708.175l17.44,4.434A20.445,20.445,0,0,1,87.569,18.152Q90,25.7,91.349,31.966q2.266,10.533,5.723,32.6,0,5.686-3.934,8.365c-5.59,3.807-9.875,2.947-12.452-2.2q-2.577-5.146-2.971-16.118V91.361H22.133V50.876L19.845,71.863q-1.59-.844-6.664,1.715c-.115.058,6.121,1.3,6.013,1.36-4.406,2.5-1.868,6.255-3.72,7.826a5.964,5.964,0,0,1-4.884,1.857q-16.448,0-7.2-38.853Q8.618,18.085,16.494,11.239T40.328.175Z" transform="translate(2.889 -0.175)"/><path class="n" d="M81.022,94.571C93.041,62.506,40.915,68.845,31.536,65.661q-9.379-3.185-12.043-20.64V90.7Q69,126.637,81.022,94.571Z" transform="translate(5.529 5.917)"/><path class="n" d="M1.141,49.392Q4.285,69.96,3.72,66.092c-.565-3.869,9.487-13.835,18.766-8.694q9.279,5.141-10.672,24.239l-14.35-4.79V48.777Z" transform="translate(2.537 6.427)"/><path class="o" d="M5.082,62.822q12.055-5.221,16.368.865a14.474,14.474,0,0,0-9.464-7.531M47.238,10.8a188.417,188.417,0,0,1-2.443,87.149" transform="translate(3.572 1.268)"/><circle class="p" cx="1.136" cy="1.136" r="1.136" transform="translate(53.994 20.398)"/><circle class="p" cx="1.136" cy="1.136" r="1.136" transform="translate(56.266 39.707)"/><circle class="p" cx="1.136" cy="1.136" r="1.136" transform="translate(56.266 62.424)"/><circle class="p" cx="1.136" cy="1.136" r="1.136" transform="translate(53.994 78.325)"/><path class="o" d="M0,0H11.358V7.951A5.679,5.679,0,0,1,0,7.951V0Z" transform="translate(66.488 35.758) rotate(-3)"/></g><g transform="translate(125.126 343.441) rotate(180)"><g transform="translate(29.631 7.382)"><path class="l" d="M2.651,19.853,0,1.308,12.879,0l2.059,21.883Z" transform="translate(0 0)"/><path class="m" d="M0,7.652,12.1,0l1.188,8.97Z" transform="translate(1.428 5.254)"/></g><g transform="translate(78.158 6.78)"><path class="l" d="M2.156,20,0,1.457,13.047,0l1.4,22.034Z" transform="translate(0 0)"/><path class="m" d="M0,7.2,12.646,0l.645,8.518Z" transform="translate(0.933 5.858)"/></g><path class="q" d="M43.162,10.78q-5.9-1.571-8.409,0a13.664,13.664,0,0,0-4.13,3.986Q20.577,8.681,13.873,6.978C7.169,5.276,0,5.753,0,0H24.46l8.5,2.764L33.505,0H43.11Z"/><g transform="translate(27.519 17.817)"><path class="r" d="M17.221,188.957,0,81.764V2.177L21.372.508l5.847,79.3,14.9,66.078L43.4,72.677l4.69-70.5L67.952,0l2.173,72.677q6.2,56.684,6.2,79.732t-3.472,36.548Z" transform="translate(0)"/><path class="s" d="M37.312,156.561l4.8-15.423m-25.86,38.633H74.117m-36.806,0v-14.7a2.4,2.4,0,0,1,4.8,0v14.7h0M25.031,184.21v-4.439q-.755-13.01-6.929-14.346L3.247,75.831V3.2M35.254,184.21v-4.439m9.087,4.439v-4.439m12.494,4.439v-4.439q1.693-13.689,14.258-18.145,1.492-31.88-1.4-51.841t-4.263-42.64L65.68.358M0,2.649,21.823,1.136M47.45,2.649,69.528,0" transform="translate(0 4.747)"/></g><path class="q" d="M24.038,9.221Q21.071,7.5,19.392,8.077c-1.679.572-1.91,3.1-8.595,3.1A8.948,8.948,0,0,0,6.141,6.145C2.59,4.314,0,5.287,0,0H19.182A4.543,4.543,0,0,1,23.6,3.494q.34,1.431.435,2.1A17.253,17.253,0,0,1,24.038,9.221Z" transform="translate(67.362)"/></g><g transform="translate(34.685 78.469)"><g transform="translate(0 35.435)"><path class="t" d="M35.259,11.992l-35.15-5V2.515L36.493,0Z" transform="translate(3.422)"/><path class="u" d="M-.415,2.273,42.361,7.256l-5.445,8.459L-3,10.433Z" transform="translate(3 0.309)"/></g><path class="v" d="M37.337,2.222,95.484.086a2.272,2.272,0,0,1,2.339,2.543L93.164,41.114a2.272,2.272,0,0,1-2.092,1.993L30.055,47.512h0L35.164,4.226A2.272,2.272,0,0,1,37.337,2.222Z" transform="translate(7.49 -0.085)"/><circle class="g" cx="3.975" cy="3.975" r="3.975" transform="translate(70.422 19.213)"/></g><path class="w" d="M4.883,21.82C3.249,20.207-.9,12.182.178,11.25.7,10.8,4.787,17.4,5.111,17.262,5.521,17.088-.755,5.534.454,4.776s6.42,9.329,7.036,9.068S2.288,2.422,3.932,1.725s6.762,11.007,7.5,11.262S9.163,3.2,9.163,1.49s.908-2.371,2.055.331L16.178,13.5q.668,1.575,3.806-.009a2.258,2.258,0,0,1-.312,2.684c-1.017,1.023-2.377.964-2.721,1.4a17.447,17.447,0,0,1-4.549,4.1C8.663,24.114,5.737,22.663,4.883,21.82Z" transform="translate(92.65 103.478) rotate(23)"/><g transform="translate(7.569 99.189)"><path class="l" d="M.01,20.924c.2-2.381-.754-8.575,19.31-12.451L37.587,5.291Q49.314,0,52.724,0a24.387,24.387,0,0,1,8.5,2.126h0a3.407,3.407,0,0,1,1.212.826q4.413,4.685,3.511,5.092-.953.43-5.109-3.374l-5.633-.827,3.124.789a3.407,3.407,0,0,1,2.024,1.45q3.264,5.035,2.635,5.508-.7.524-4.313-4L53.621,6.7q4.331,1.086,4.885,2.316c.555,1.229,1.661,5.033.975,5.363q-.686.331-2.457-3.9l-4.3-.825q2.627.778,3.229,2.062c.6,1.284,1.075,2.619.768,3q-.307.378-2.319-2.419-8.211-.1-11.91-.537Q15.889,28.038,9.235,29.8C2.581,31.569-.192,23.305.01,20.924Z" transform="translate(0 0)"/><path class="m" d="M.009,18.666q2.453,7.608,13.067,3.4T42.491,10.352L12.3,31.255l-12.288-.8Z" transform="translate(0.001 1.406)"/></g></g><g transform="translate(443.03 308.857)"><path class="x" d="M25.12,68.79l41.356,38.347" transform="translate(7.955 9.344)"/><path class="x" d="M0,38.347,41.356,0" transform="translate(64.209 116.481) rotate(180)"/><g transform="translate(9.374 56.167)"><path class="y" d="M19.977.947.574,81.421a2.163,2.163,0,0,0,2.1,2.67,3.594,3.594,0,0,0,3.468-2.65L28.05.947H19.977Z" transform="translate(-0.513 21.709)"/><rect class="z" width="72.694" height="24.988" transform="translate(8.419)"/></g><g transform="translate(86.581 161.968) rotate(180)"><path class="y" d="M19.464,83.144.061,2.67A2.163,2.163,0,0,1,2.163,0,3.594,3.594,0,0,1,5.631,2.65L27.537,83.144H19.464Z" transform="translate(0)"/><rect class="z" width="72.694" height="24.988" transform="translate(8.419 80.812)"/></g><path class="y" d="M95.416.05c-2.2.432-8.555,5.1-12.468,19.583A178.042,178.042,0,0,0,78.9,39.006c-1.835,11.507-1.2,23.524-10.067,27.8C53.014,74.435,5.6,68.985,2.137,71.45s-2.692,6.943,6.206,7.5,52.734,1.613,61.645-1.3,17.468-9.548,18.637-27.05,2.267-31.743,6.185-40.232S97.613-.382,95.416.05Z" transform="translate(4.574 0)"/><path class="aa" d="M99.571,4.93q-9.66,7.219-13.026,29.925C83.179,57.56,83.874,74.7,58.817,75.345S.8,77.5.8,72.8-9.278,78.137-.226,81.776Q8.826,85.416,60.4,84.5l43.747-9.886,5.212-59.192Z" transform="translate(4 0.67)"/></g><g transform="translate(354.435 224.758)"><g transform="translate(120.143 0)"><path class="ab" d="M5.89,20.43a9,9,0,0,1-1.9-7.326q-4.53-1.685-2.671-7C3.175.792,8.928,6.365,15.794,2.838S26.476,1.158,26.476,5q5.538,0,7.022,7.131c1.483,7.131-4.011,21.458-7.022,20.53C23.576,31.772,8.33,23.567,5.89,20.43Z" transform="translate(-0.775 -0.959)"/><g transform="translate(4.81 12.793)"><path class="ac" d="M1.155,1.283c-2,16.929,3.323,27.74,10.172,25.4q1.212,2.451-.446,10.149C9.306,44.141,14.6,47.382,18.059,46.956s9.094-7.582,9.094-12.542q0-2.271-2.64-14.19a41.97,41.97,0,0,1-.473-5.02c0-2.835.192-3.672.473-4.129C26.982,7.069,24.63,5.032,23,5.734s-1.83,3.241-1.955,3.7-.165,2.448-.869-.626-1.746-2.576-2.751-4.275S16.579.692,14.918.318c-2.586-.582-7.1,1.66-10.153,1.827A6.321,6.321,0,0,1,1.155,1.283Z" transform="translate(-0.73 -0.222)"/><path class="ad" d="M10.538,24.074a10.263,10.263,0,0,0,6.37-4.668q-.218,11.114-7.1,12.532T10.538,24.074Z" transform="translate(0.059 2.384)"/></g><circle class="ae" cx="3.408" cy="3.408" r="3.408" transform="translate(2.528 19.356)"/><circle class="ae" cx="3.408" cy="3.408" r="3.408" transform="translate(11.614 19.356)"/><path class="af" d="M9,21.355h2.272m6.7,0,6.692-2.969" transform="translate(0.343 1.408)"/></g><g transform="translate(186.895 132.939) rotate(180)"><path class="ag" d="M35.7,87.379q.752-5.13,2.925-7.492c2.173-2.362,8.456-4.587,11.14-1.908q2.684,2.679,1.5,7.469l6.387-.54A18.4,18.4,0,0,0,72.681,74.558l14.891-30.92h0L70.9,35.911l-3.862,7.34A409.738,409.738,0,0,0,69.286,1.7L19.409,0q2.1,17.157,2.1,23.406t-1.29,19.845l-1.084-4.4L0,41.028Q5.095,72.656,12.183,78.818T35.7,87.379Z" transform="translate(0 0.67)"/><path class="ah" d="M0,0,51.555,1.773Q14.267,11.878,11.828,23.327T5.653,60.712L.994,55.27V43.182Z" transform="translate(19.143)"/><path class="ah" d="M1.826,7.04,0,24.032l10.965-21L4.69,0Z" transform="translate(65.214 34.937)"/></g><g transform="translate(123.806 91.415)"><path class="ac" d="M44.985,2.3,46.958,11.5,24.9,10.252Q13.755,7.413,10.507,8.018A22.154,22.154,0,0,0,2.85,11.5Q-.737,16.48.191,17.124t4.045-3.707l4.823-1.71q-3.361,1.517-3.9,2.247c-.541.73-2.661,5.291-1.791,5.851q.87.56,3.2-4.221l4.344-1.573q-3.95,1.957-3.95,2.716c0,.76-.894,5.159,0,5q.894-.155,1.547-3.922l3.75-1.287q-2.448,1.252-2.6,2.1c-.157.85-.551,2.816-.116,2.961s1.278-1.674,1.554-2.5a40.56,40.56,0,0,0,10.448-2.365q25.109,9.961,31.8,11.025c6.693,1.064,9.557-4.219,9.557-9.473q0-5.254-1.36-17.834Z" transform="translate(0 -0.441)"/><path class="ad" d="M18.982,15.845q28.209,9.51,35.818,8.1T60.947,7.112l.518,18.524-9.027,6.508L24.112,20.788Z" transform="translate(2.578 0.465)"/></g><g transform="translate(115.186 117.91) rotate(180)"><path class="ac" d="M13.473,28.193,0,21.915Q6.554,7.6,12.572,5.748A77.861,77.861,0,0,1,23.336,3.355Q30.492,2.3,54.3,0h21.08Q73.114,8.224,55.4,5.014L18.253,18.23Z"/><path class="ai" d="M10.134,0q.23,2.1-1.655,2.1H0" transform="translate(56.383)"/><path class="ai" d="M11.27,0q.493,3.021-2.791,3.235A83.218,83.218,0,0,1,0,3.235" transform="translate(60.927)"/></g><g transform="translate(0 128.225)"><g transform="translate(0 74.114)"><g transform="translate(37.538 0) rotate(39)"><path class="ac" d="M0,6.474,5.087,28.932,16.14,27.555,17.6,23.7,11.337,0Z" transform="translate(3.522 0)"/><path class="ad" d="M0,9.284l19.544-.37L16.7,0Z" transform="translate(0 6.424)"/></g><path class="q" d="M41.844,22.736q-5.177,5.984-15.307,0-12.4,9.431-17.781,10.4C3.377,34.114,0,34.855,0,38.559H24.553l8.461-5.418v5.418h8.831a35.821,35.821,0,0,0,1.325-7.911A35.821,35.821,0,0,0,41.844,22.736Z" transform="translate(0 2.974)"/></g><g transform="translate(70.422 86.495)"><g transform="translate(21.584)"><path class="ac" d="M.15,3.066,5.662,16.016l12.219,2.434L19.853,14.2,15.587,0Z" transform="translate(0.415)"/><path class="ad" d="M-.347,3.857,19.389,9.668l-3-9.35Z" transform="translate(0.347 0.043)"/></g><path class="q" d="M41.844,11.736q-5.177,5.984-15.307,0-12.4,9.431-17.781,10.4C3.377,23.114,0,23.855,0,27.559H24.553l8.461-5.418v5.418h8.831a35.821,35.821,0,0,0,1.325-7.911A35.821,35.821,0,0,0,41.844,11.736Z" transform="translate(0 1.594)"/></g><g transform="translate(25.172 2.957)"><path class="aj" d="M84.6.62Q50.288-2.147,41.055,7.436T0,84.772l21.006,2.666,32.617-53.7,11.825-7.324Z" transform="translate(2.925 0)"/><path class="s" d="M60.249,18.09q-5.081,1-12.873,12.792T18.484,79.361m10.379,1.495L-2.575,76.415" transform="translate(2.575 2.457)"/></g><g transform="translate(69.406 0)"><path class="r" d="M98.027.874q3.343,33.283-24.884,31.884T24.151,24.37l17.108,64.3L21.917,90.082Q-5.915,18.656,1.692,6.953,6.787-.885,48.282.113,61.92.441,98.027.874Z" transform="translate(-0.059 0.335)"/><path class="s" d="M98.609,5.435,45.9-.295M87.111.914q-.094,24.038-25.105,20.422C36.995,17.72,9.906,8.252,11.974,19.672Q14.043,31.092,34.635,84m8.873,0H15.494" transform="translate(1.545 0.295)"/></g></g></g><g transform="translate(391.917 261.151)"><path class="ak" d="M5.408,0H79.237a3.408,3.408,0,0,1,3.408,3.408V55.656a3.408,3.408,0,0,1-3.408,3.408H5.408A3.408,3.408,0,0,1,2,55.656V3.408A3.408,3.408,0,0,1,5.408,0Z" transform="translate(2.543 0)"/><rect class="al" width="80.644" height="59.063" rx="3" transform="translate(2.272)"/><path class="am" d="M26.4,33,36.618,54.581H-2Z" transform="translate(2 4.483)"/><circle class="g" cx="4.543" cy="4.543" r="4.543" transform="translate(36.347 18.173)"/><path class="u" d="M25.951,33h15.9l-5,37.38,13.937.705v2.8H18Z" transform="translate(4.717 4.483)"/><path class="v" d="M23.951,33H42.124L34.173,73.89H16Z" transform="translate(4.445 4.483)"/><g transform="translate(27.26 59.063)"><circle class="an" cx="4.543" cy="4.543" r="4.543"/><circle class="g" cx="4.543" cy="4.543" r="4.543" transform="translate(1.136)"/></g></g><g transform="translate(320.359 339.524)"><path class="ao" d="M16.436,128.119V3H221.527V128.119" transform="translate(2.233 0.408)"/><path class="ao" d="M64.436,128.119V3H269.527V128.119" transform="translate(8.753 0.408)"/><rect class="ap" width="205.586" height="6.815"/><rect class="z" width="90.867" height="6.815" transform="translate(205.586)"/></g><g transform="translate(613.405 272.51)"><path class="aq" d="M0,94.5a14.886,14.886,0,0,1,9.595,11.068l5.567-1.716-4.978,3.712q8.2,16.842,20.007,12.827c11.81-4.015,4.37-19.652-5.652-24.223Q14.518,91.593,0,94.5ZM1.092,30.236a21.014,21.014,0,0,1,5.351,14c0,7.732-1.386,15.77,1.365,23.145l8.457-1.714L8.678,70.64q8.44,16.412,23.672,14.843,10.837-12.438,2.866-31.2T1.092,30.236ZM47.324,64.422Q29.394,16.149,92.692,0a42.416,42.416,0,0,0-5.437,16.879c-.631,8.052-1.368,12.338-2.449,15.332L69.672,30.978,83.98,35.322A37.765,37.765,0,0,1,69.672,55.844,43.006,43.006,0,0,1,47.324,64.422ZM98.177,44.456Q94.512,55.785,80.146,66.342C65.78,76.9,61.086,81.647,56.75,100.98q2.692-4.561,12.4-6.783a43.506,43.506,0,0,0,16.58-7.366l-2.5-7.7,4.957,5.561a33.364,33.364,0,0,0,9.147-17.416A86.074,86.074,0,0,0,98.177,44.456ZM55.439,122.918q4.147-21.12,29.8-22.64l-1.912,6.176,5.222-6.176a32.056,32.056,0,0,1,16.767,5.638,51.264,51.264,0,0,0-13.777,8.69Q72.721,132.183,55.439,122.918Z" transform="translate(0 0)"/><path class="ao" d="M83.4,4.945Q33.328,46.219,40.2,145.524M7.128,34.2Q35.4,68.131,40.2,148.008M8.647,95.722q20.695,10.39,31.553,49.8m53.955-40.308Q55.077,109.4,39.371,145.524" transform="translate(0.968 0.672)"/><path class="ao" d="M91.481,46.161Q87.056,62.445,72.725,73.036c-14.331,10.591-32.537,27.152-36.48,69.373" transform="translate(4.923 6.27)"/><g transform="translate(5.588 140.673)"><path class="r" d="M.573,0H63.678V24.915a31.553,31.553,0,1,1-63.105,0V0Z" transform="translate(5.513)"/><path class="h" d="M-.6,3.958h66.62M-.6,8.09h66.62" transform="translate(5.353 0.538)"/><path class="ar" d="M-3.825,30.416c3.707,4.473,21.188-20.944,16.38,4.926S1.81,79.761,18.9,53.869s20.471-14.791,34.079,2.109-16.621-34.753-3.9-34.753,19.871,4.685,26.166-2.533c4.01-4.6-18.162-3.33-41.965-3.232-13.563.056-27.02-2.682-38.059-1.045" transform="translate(4.785 1.887)"/></g></g><g transform="translate(481.762 99.843)"><g transform="translate(0 0)"><rect class="ag" width="118.127" height="84.052" rx="6" transform="translate(3.293 5.698)"/><path class="j" d="M-.663-5Q8.886,63.824,55.394,61.019c33.9-2.044,62.471-8.428,80.709,14.657V95.309H-2Z" transform="translate(2 5)"/></g><g transform="translate(23.259 20.678)"><rect class="f" width="9.15" height="54.925"/><path class="as" d="M0,16.119H9.151V49.328a3.408,3.408,0,0,1-3.408,3.408H3.408A3.408,3.408,0,0,1,0,49.328V16.119Z" transform="translate(0 2.19)"/><g transform="translate(17.469)"><rect class="f" width="9.15" height="54.925"/><path class="as" d="M0,8.059H9.151V50.423A3.408,3.408,0,0,1,5.743,53.83H3.408A3.408,3.408,0,0,1,0,50.423V8.059Z" transform="translate(0 1.095)"/></g><g transform="translate(34.938)"><rect class="f" width="9.15" height="54.925"/><path class="as" d="M0,25.644H9.151V48.034a3.408,3.408,0,0,1-3.408,3.408H3.408A3.408,3.408,0,0,1,0,48.034V25.644Z" transform="translate(0 3.483)"/></g><g transform="translate(52.407)"><rect class="f" width="9.15" height="54.925"/><path class="as" d="M0,2.2H9.151V51.219a3.408,3.408,0,0,1-3.408,3.408H3.408A3.408,3.408,0,0,1,0,51.219V2.2Z" transform="translate(0 0.299)"/></g><g transform="translate(69.878)"><rect class="f" width="9.15" height="54.925"/><path class="as" d="M0,11.723H9.151v38.2a3.408,3.408,0,0,1-3.408,3.408H3.408A3.408,3.408,0,0,1,0,49.925v-38.2Z" transform="translate(0 1.592)"/></g></g></g><g transform="translate(264.703 105.542)"><path class="aq" d="M4.293,0H55.1a4.293,4.293,0,0,1,4.293,4.293v22.5A4.293,4.293,0,0,1,55.1,31.082H16.233l-10.69,8.99v-8.99H4.293A4.293,4.293,0,0,1,0,26.789V4.293A4.293,4.293,0,0,1,4.293,0Z"/><circle class="g" cx="2.147" cy="2.147" r="2.147" transform="translate(16.458 13.596)"/><circle class="g" cx="2.147" cy="2.147" r="2.147" transform="translate(27.907 13.596)"/><circle class="g" cx="2.147" cy="2.147" r="2.147" transform="translate(39.357 13.596)"/></g><g transform="translate(460.067 227.304) rotate(180)"><path class="n" d="M4.771,44.525H61.222a4.771,4.771,0,0,0,4.771-4.771V14.76a4.771,4.771,0,0,0-4.771-4.771H18.036L6.159,0V9.989H4.771A4.771,4.771,0,0,0,0,14.76V39.754A4.771,4.771,0,0,0,4.771,44.525Z" transform="translate(0)"/><circle class="g" cx="2.385" cy="2.385" r="2.385" transform="translate(18.287 24.648)"/><circle class="g" cx="2.385" cy="2.385" r="2.385" transform="translate(31.008 24.648)"/><circle class="g" cx="2.385" cy="2.385" r="2.385" transform="translate(43.73 24.648)"/></g></g></svg>